<svg xmlns="http://www.w3.org/2000/svg" xml:space="preserve" viewBox="0 0 1125 300">
    <path fill="white"
        d="M928.1275 165.6375v-26.125h-26.125v-26.125h-26.125V100.325h-26.125v156.75h26.125V139.5125h26.125v26.125h26.125Zm-418 91.4375h-52.25V230.95H470.94v-104.5h-13.0625v-26.125h52.25v26.125H497.065v104.5h13.0625v26.125Zm470.25 0h-26.125v-65.3125h-26.125v-26.125h26.125V100.325h26.125v156.75Zm-326.5625 0h-104.5V230.95h91.4375v-26.125h26.125v26.125H653.815v26.125Zm-104.5-130.625h91.4375v26.125h26.125V126.45H653.815v-26.125h-104.5v26.125Zm0 104.5v-104.5H523.19v104.5h26.125Zm261.25 26.125h-104.5V230.95h104.5v26.125Zm-104.5-26.125v-104.5H679.94v104.5h26.125Zm104.5 0h26.125v-104.5h-26.125v104.5Zm0-104.5v-26.125h-104.5v26.125h104.5Zm274.3125 130.625H993.44V230.95h91.4375v26.125ZM1019.565 126.45h91.4375v-26.125h-91.4375v26.125Zm65.3125 52.25v-26.125h-65.3125V178.7h65.3125Zm0 52.25h26.125V178.7h-26.125v52.25Zm-65.3125-78.375V126.45H993.44v26.125h26.125ZM289.84 10.92H184.78v35.02h-35.02v35.02H79.72v35.02H44.7V151H9.68v105.06H44.7v35.02h350.2v-35.02h35.02V151H394.9v-35.02h-35.02V80.96h-35.02V45.94h-35.02V10.92zM324.86 151h70.04v105.06H44.7V151h35.02v-35.02h70.04V151h35.02v-35.02h-35.02V80.96h35.02V45.94h105.06v35.02h35.02V151zm0 0v35.02h-35.02V151h35.02z" />
</svg>